<svg version="1.1" id="Layer_1" xmlns="http://www.w3.org/2000/svg" xmlns:xlink="http://www.w3.org/1999/xlink" x="0px" y="0px"
	 width="100%" viewBox="0 0 500 500" enable-background="new 0 0 500 500" xml:space="preserve">
<path fill="#8BCCCA" opacity="1.000000" stroke="none" 
	d="
M0.999996,251.000000 
	C1.000000,248.299927 1.000000,245.599854 1.317359,242.755234 
	C2.793386,240.194397 3.860646,237.729095 5.126028,235.370041 
	C11.798397,222.930832 30.299072,221.967148 39.270107,229.707291 
	C42.315914,232.335205 45.747490,231.490616 47.553467,227.835739 
	C49.345795,224.208450 50.984959,220.503708 52.628216,216.804916 
	C55.769775,209.733658 59.992558,202.905212 61.720505,195.498642 
	C64.376038,184.116104 65.357147,172.337814 66.934708,160.711975 
	C67.415382,157.169601 66.252869,155.328003 62.032604,155.863007 
	C52.510124,157.070145 44.262207,154.859940 38.619606,146.197235 
	C30.433086,133.629013 34.558910,118.935379 48.322502,113.438683 
	C51.528740,112.158218 55.352589,112.128609 58.902412,112.061707 
	C68.104019,111.888283 74.971504,116.894501 78.034981,125.620201 
	C79.688133,130.328888 82.923904,131.403687 86.958847,128.506516 
	C89.604248,126.607086 92.126854,124.536110 94.779846,122.647881 
	C101.398766,117.936974 109.061150,114.216515 114.472511,108.395294 
	C122.727921,99.514618 129.459869,89.214058 136.793503,79.482315 
	C139.149780,76.355515 137.847900,74.350754 134.542267,73.218056 
	C119.259628,67.981339 118.559235,56.084202 120.450981,45.277126 
	C122.035400,36.225719 130.077927,30.189968 138.407028,29.997627 
	C150.781265,29.711874 160.651245,35.510414 162.957672,44.949860 
	C163.876358,48.709637 163.940796,52.740875 163.935547,56.647915 
	C163.928864,61.630859 165.219849,63.445103 168.881973,62.985783 
	C180.203201,61.565804 191.538727,60.259911 203.066650,59.215904 
	C208.873474,61.860813 209.395767,63.667255 205.667419,69.032654 
	C201.220276,72.325340 197.172424,75.599831 192.905289,78.558037 
	C185.287872,83.838844 184.608444,89.058754 190.626404,96.134384 
	C193.579529,99.606544 196.088852,103.454758 199.020523,106.946838 
	C205.294693,114.420319 211.712952,121.772842 218.278290,129.423187 
	C222.158035,133.047409 225.831680,136.423340 229.456528,139.754425 
	C227.800400,141.735352 226.923828,142.783829 225.643326,143.917175 
	C219.192780,145.819672 213.161591,147.690979 207.093857,149.435135 
	C203.355438,150.509720 200.529648,150.700333 198.623322,145.765747 
	C196.801315,141.049515 193.259720,136.934113 190.115143,132.829498 
	C189.120895,131.531708 186.970978,131.119263 185.349945,130.301651 
	C185.097000,132.250763 184.167740,134.417984 184.713287,136.109573 
	C186.632507,142.060532 189.109009,147.829437 191.273209,153.704575 
	C192.594116,157.290451 191.866806,160.221909 188.352173,162.319809 
	C178.570358,168.158585 169.906189,175.358841 163.275986,184.664749 
	C160.550110,188.490692 157.761612,188.585052 154.150360,186.630234 
	C149.472061,184.097763 144.892181,181.335953 140.034180,179.212067 
	C138.582657,178.577454 136.341492,179.748917 134.462112,180.092911 
	C135.040970,181.613281 135.204208,183.579193 136.272064,184.575378 
	C140.449173,188.472092 144.999054,191.965927 149.245712,195.792267 
	C153.973099,200.051727 154.131546,202.531479 151.724503,207.824005 
	C148.995956,213.823380 146.504776,219.969254 144.474976,226.234329 
	C143.134109,230.372955 142.695724,234.819641 142.025970,239.155075 
	C141.487747,242.639160 139.952545,244.338974 136.124039,244.071854 
	C131.647446,243.759521 127.127144,243.863342 122.635208,244.034042 
	C116.770119,244.256927 114.910637,246.088516 115.526840,251.334915 
	C122.426453,252.211868 129.652939,252.492126 136.476700,254.295914 
	C139.413742,255.072296 143.569016,258.945953 143.644852,261.516479 
	C143.986740,273.107147 146.233994,284.072144 150.956955,294.591827 
	C152.782181,298.657257 151.506180,301.161407 147.572845,303.208038 
	C143.275711,305.443909 139.158203,308.133087 135.313171,311.082062 
	C133.523392,312.454712 132.561966,314.907471 130.627396,317.748230 
	C138.449570,318.325775 143.568817,315.961243 148.471848,313.020721 
	C155.065125,309.066467 161.118240,310.618408 165.382217,316.578766 
	C169.107590,321.786224 173.512375,326.540619 177.901688,331.228668 
	C180.924469,334.457214 184.404755,337.263062 187.734177,340.196960 
	C190.231979,342.398010 190.456757,344.176483 188.488022,347.348907 
	C185.291565,352.499695 183.074448,358.279663 180.711838,363.906525 
	C180.291687,364.907227 181.171814,366.453918 181.451538,367.748474 
	C182.591934,367.358124 184.127762,367.308868 184.807281,366.521027 
	C188.642075,362.075012 192.219940,357.408844 195.984131,352.900146 
	C200.244919,347.796631 203.467728,346.816345 208.070755,349.412567 
	C215.667252,353.697235 223.399872,357.636414 232.478683,358.341583 
	C236.734573,358.672150 242.685715,359.495880 244.571106,362.307404 
	C246.863541,365.725891 245.579819,371.485382 246.031082,376.214264 
	C246.374542,379.813599 247.011169,383.384918 247.517365,386.968719 
	C248.131027,387.088654 248.744690,387.208588 249.358353,387.328552 
	C250.508911,385.706024 252.306915,384.221252 252.686981,382.434814 
	C253.768143,377.352997 254.515137,372.168121 254.939514,366.986603 
	C255.464188,360.580475 257.601074,358.534912 263.908234,357.919403 
	C270.516205,357.274506 277.117126,356.249084 283.613190,354.878418 
	C287.688019,354.018646 291.646027,352.410919 295.507111,350.784332 
	C299.787323,348.981201 302.353088,350.073059 304.773010,354.088684 
	C308.236023,359.835175 312.426208,365.143402 316.305878,370.638763 
	C317.074341,370.440582 317.842834,370.242401 318.611298,370.044220 
	C318.777618,368.131531 319.543488,366.024963 318.999329,364.342010 
	C317.276886,359.015228 315.286285,353.746429 312.975952,348.647064 
	C310.908478,344.083649 311.630188,339.416840 315.756744,336.794373 
	C325.303314,330.727386 333.296753,322.977234 340.144806,314.088287 
	C342.690033,310.784546 344.834991,310.648773 348.237000,312.569733 
	C353.388031,315.478271 358.747650,318.049683 364.171448,320.413727 
	C365.169830,320.848907 367.283783,319.975922 368.144440,319.032837 
	C368.711548,318.411469 368.440735,316.062012 367.710999,315.383606 
	C364.126556,312.051208 360.601624,308.430573 356.416718,306.021851 
	C350.429901,302.575989 347.827972,296.843597 351.607330,289.868530 
	C355.592255,282.514038 357.692841,274.742981 359.314392,266.470276 
	C361.761047,253.988602 358.145386,255.100845 372.794830,254.942749 
	C376.548492,254.902252 380.353851,254.546997 384.016754,253.773880 
	C385.439941,253.473480 386.534821,251.617599 387.779266,250.470291 
	C386.595306,249.637711 385.506256,248.310150 384.210297,248.061676 
	C379.589294,247.175705 374.910797,246.540009 370.230469,246.023621 
	C361.489807,245.059250 358.185699,242.867981 358.253113,234.542709 
	C358.343719,223.355133 354.271698,213.530563 350.690338,203.472351 
	C349.542511,200.248642 350.285065,198.606796 352.851654,196.932983 
	C357.755005,193.735199 362.677277,190.540512 367.327759,186.998047 
	C368.583252,186.041718 368.890533,183.840607 369.633057,182.210846 
	C367.806427,181.935638 365.757874,180.993469 364.195801,181.513275 
	C359.921112,182.935806 355.826874,184.919815 351.705750,186.780212 
	C344.632507,189.973267 339.266296,188.803131 335.675720,182.405899 
	C330.557709,173.287201 322.609924,166.599808 314.448975,160.438416 
	C310.670227,157.585495 311.576630,154.725525 312.753357,151.935562 
	C314.763245,147.170197 317.582336,142.751587 319.944183,138.127411 
	C321.737457,134.616470 321.570770,134.224152 317.814026,130.982300 
	C313.661285,136.064163 309.346802,141.002655 305.432007,146.239960 
	C302.153625,150.625854 297.893707,152.623550 293.214905,150.627167 
	C287.709198,148.277954 282.400452,145.467224 276.786255,142.586823 
	C273.921234,140.689392 274.661560,138.713623 276.379608,137.142502 
	C278.742645,134.981552 281.403381,133.146194 284.274231,131.024536 
	C286.244629,129.905869 288.269775,129.272812 289.447784,127.908371 
	C298.752197,117.131508 308.109131,106.386436 317.002258,95.273331 
	C321.834991,89.234184 320.503113,84.546959 314.342590,80.003891 
	C309.693939,76.575752 305.385193,72.686737 300.730774,68.723183 
	C299.780487,66.913345 298.016998,64.792244 298.491272,63.983574 
	C299.321411,62.568104 301.425293,61.573818 303.181335,61.116249 
	C305.042297,60.631332 307.119812,60.977383 309.477783,60.975636 
	C310.279602,61.198345 310.689545,61.536495 311.135773,61.594231 
	C320.039337,62.746365 328.938232,63.945419 337.859222,64.946114 
	C340.685669,65.263161 343.247650,61.886929 342.501160,59.046276 
	C340.812469,52.620403 342.433289,46.562286 345.479736,41.164131 
	C349.043823,34.848679 362.644135,30.272463 369.669373,32.206436 
	C379.196167,34.829071 386.311005,43.916328 387.110931,53.154224 
	C387.808411,61.209339 382.180817,72.194626 372.558350,75.218361 
	C368.008392,76.648155 367.156708,79.754906 369.992798,83.741783 
	C374.310577,89.811546 378.396698,96.130051 383.381042,101.616211 
	C387.661438,106.327576 390.183960,112.361778 396.159485,115.927345 
	C404.078247,120.652481 411.153290,126.776108 418.704620,132.138687 
	C422.991608,135.183105 424.143311,134.708511 426.026184,129.856522 
	C430.525116,118.263222 442.921417,111.911621 454.540466,116.282410 
	C464.869568,120.167953 473.031036,128.908096 468.960022,143.906921 
	C465.833496,155.426071 455.361847,161.396957 443.876404,159.886551 
	C439.011688,159.246826 436.270325,161.770264 437.042633,166.268738 
	C438.141388,172.668701 439.177460,179.085526 439.988525,185.526840 
	C440.623993,190.574036 439.817932,196.059067 441.512512,200.665222 
	C445.512878,211.538940 450.604279,222.012634 455.294281,232.630493 
	C456.894470,236.253220 458.805695,237.261047 462.368195,234.249054 
	C475.493500,223.151947 493.089813,230.591736 499.049683,243.552704 
	C499.346252,244.197708 500.334045,244.524857 501.000000,245.000000 
	C501.000000,249.025497 501.000000,253.051010 500.710815,257.238037 
	C499.930603,258.015228 499.248657,258.556793 498.976868,259.257446 
	C493.395966,273.645538 472.253235,278.103760 462.050262,267.727173 
	C459.659332,265.295532 456.641418,266.169861 455.225555,269.462830 
	C452.031891,276.890381 449.048920,284.408447 445.969696,291.885345 
	C444.324066,295.881317 441.826935,299.734589 441.157959,303.884979 
	C439.311981,315.338013 438.385803,326.936310 436.749115,338.427765 
	C436.212494,342.195404 437.722504,343.299988 440.784821,342.618317 
	C452.241852,340.067780 463.605865,345.857422 467.652924,357.392242 
	C471.062134,367.109131 469.623688,378.469757 455.933716,384.793701 
	C443.829987,390.384857 431.182953,384.335297 426.053772,374.118134 
	C422.376709,366.793549 421.364197,366.622253 414.938293,371.514191 
	C406.955627,377.591125 398.671844,383.271301 390.589233,389.219482 
	C389.457611,390.052338 388.702209,391.413116 387.820282,392.565918 
	C381.202393,401.216553 374.692169,409.951904 367.943146,418.498779 
	C364.928009,422.317169 365.396698,423.886719 369.891998,426.112335 
	C373.622864,427.959534 377.901276,429.920288 380.256622,433.082489 
	C385.854187,440.597504 386.815552,449.205231 382.578430,457.909363 
	C378.442505,466.405701 371.505341,469.251099 362.178406,469.162292 
	C348.158722,469.028839 337.348206,455.878876 340.850800,442.461243 
	C341.582550,439.658112 338.748962,436.004547 336.233337,436.278656 
	C324.871521,437.516754 313.511444,438.770660 302.151672,440.027618 
	C301.502380,440.099426 300.808441,440.126587 300.224884,440.380524 
	C290.012299,444.824799 279.846527,449.378265 269.600403,453.743286 
	C262.909271,456.593872 262.570892,457.743591 267.123596,463.619324 
	C275.442780,474.356110 271.576355,487.966095 262.143219,494.863708 
	C250.925171,503.066498 238.279449,500.141663 229.974075,487.963989 
	C224.843170,480.440918 225.660934,468.564636 231.518250,461.982422 
	C234.940842,458.136292 234.536758,455.657410 229.745438,453.370331 
	C224.338898,450.789520 218.787582,448.512695 213.306015,446.088318 
	C207.996704,443.740204 202.901413,440.339172 197.347473,439.235413 
	C186.797256,437.138672 176.003784,436.186188 165.278259,435.079193 
	C158.127029,434.341064 158.059860,434.628967 158.029602,441.795654 
	C158.024689,442.961884 157.893875,444.140350 158.016602,445.292358 
	C159.601425,460.169098 142.422577,470.186279 128.634399,466.277191 
	C117.928055,463.241852 113.664589,454.275085 113.210014,445.016296 
	C112.716217,434.958466 116.980431,428.403809 126.978020,424.062134 
	C132.560791,421.637787 133.414658,419.411133 129.927536,414.499420 
	C127.014938,410.396942 124.036255,406.337585 120.970963,402.348175 
	C116.471153,396.491791 112.531891,389.987366 107.151047,385.077026 
	C99.376801,377.982635 90.530586,372.061890 82.131805,365.653412 
	C78.496803,362.879852 76.397148,363.415802 75.092735,368.122711 
	C72.106544,378.898224 61.499001,383.352386 53.320927,382.827179 
	C37.715588,381.825073 28.691080,371.944397 32.001598,355.047302 
	C34.211010,343.770355 47.438923,335.429718 56.838337,338.838623 
	C60.908272,340.314667 64.274803,337.415955 63.941025,332.933746 
	C63.112816,321.811920 61.981495,310.712585 60.957596,299.605560 
	C60.913269,299.124725 60.781792,298.634247 60.597935,298.186432 
	C56.052025,287.114166 51.576286,276.011810 46.882965,265.002228 
	C45.604469,262.003143 43.138981,260.393463 40.292942,263.276886 
	C28.771416,274.949799 7.460146,268.008453 2.961228,252.967560 
	C2.727470,252.186081 1.672586,251.650223 0.999996,251.000000 
M113.934372,132.492676 
	C111.468796,138.444550 112.311981,142.227570 117.104408,145.501953 
	C118.680717,146.578949 120.552597,147.262695 122.351273,147.968323 
	C132.229126,151.843414 142.089615,155.767853 152.033478,159.467255 
	C156.419144,161.098877 160.987518,162.239426 166.033691,163.773392 
	C166.033691,159.209076 166.398209,155.993759 165.932419,152.903595 
	C165.455017,149.736282 164.206421,146.678207 163.221619,143.595886 
	C161.495224,138.192429 159.901184,132.735794 157.901581,127.433479 
	C155.802383,121.867096 153.517731,116.344330 150.886429,111.013611 
	C148.943710,107.077911 145.222534,106.148582 141.184952,107.398331 
	C136.714706,108.781982 132.246368,110.264580 127.967636,112.138809 
	C125.471146,113.232361 122.547188,114.684357 121.220520,116.839821 
	C118.349854,121.503914 116.383354,126.724510 113.934372,132.492676 
M431.970184,207.434891 
	C432.811005,203.640411 430.755981,200.908859 428.643158,198.153519 
	C426.376129,195.197144 424.004303,192.290726 422.045471,189.134613 
	C417.577118,181.935135 411.874146,180.880005 405.229919,186.311951 
	C399.552063,190.953842 393.815308,195.529938 388.271698,200.328125 
	C381.817108,205.914810 375.544250,211.711456 368.229858,218.281754 
	C372.752869,220.718735 375.626007,223.125641 378.877991,223.863953 
	C390.357025,226.470184 401.934967,228.682465 413.535614,230.697479 
	C422.144867,232.192871 428.895721,230.679840 430.048279,218.842255 
	C430.392700,215.305054 431.307678,211.823395 431.970184,207.434891 
M378.027100,294.536377 
	C381.372253,297.374969 384.679810,300.259399 388.070679,303.042267 
	C394.490906,308.311310 400.815704,313.714203 407.468384,318.674957 
	C410.725433,321.103607 414.467682,319.884583 417.060608,317.218384 
	C420.809052,313.363983 423.851074,308.821991 427.604767,304.973511 
	C430.291992,302.218475 431.933075,299.732208 431.094055,295.579803 
	C430.223145,291.269714 430.608887,286.717865 429.905975,282.358704 
	C428.971313,276.562561 427.398438,271.034332 419.076050,272.066101 
	C409.373047,273.269043 399.713379,274.866058 390.073608,276.518005 
	C384.652710,277.446991 379.273499,278.690216 373.944092,280.058777 
	C370.095398,281.047089 368.875214,283.482574 371.462616,286.891785 
	C373.343658,289.370300 375.491730,291.646149 378.027100,294.536377 
M338.063995,350.172272 
	C338.386169,350.915802 338.747620,351.644989 339.024597,352.404968 
	C343.035889,363.411804 346.938049,374.459747 351.081787,385.416382 
	C353.008698,390.511322 357.606537,393.278717 361.893982,391.901459 
	C367.572845,390.077179 373.223785,388.053467 378.633911,385.565643 
	C380.540222,384.689026 382.067078,382.387115 383.127228,380.395294 
	C385.331757,376.253418 386.821991,371.722229 389.122986,367.642761 
	C393.502960,359.877533 390.035187,354.404449 382.535126,351.799408 
	C374.130676,348.880280 365.915375,345.420197 357.588074,342.274078 
	C353.056335,340.561951 348.528320,338.777069 343.870575,337.487427 
	C341.462097,336.820587 337.747925,335.246765 337.180450,339.622681 
	C336.772980,342.764526 337.695038,346.078735 338.063995,350.172272 
M163.946091,340.120239 
	C163.776733,335.781494 160.320999,333.849579 154.957916,335.560730 
	C142.180923,339.637390 129.389648,343.697144 116.769936,348.225708 
	C111.441612,350.137787 106.771904,355.325592 109.920654,362.712097 
	C111.240540,365.808350 112.088036,369.109436 113.095856,372.334412 
	C114.812935,377.828979 117.146629,382.466766 123.803345,383.478058 
	C126.384468,383.870178 128.802704,385.659424 131.178894,387.015869 
	C138.999390,391.480103 144.440796,390.282990 147.858047,382.057190 
	C153.491592,368.496460 158.395233,354.632507 163.946091,340.120239 
M210.531525,428.978638 
	C213.617035,428.653046 216.699127,428.289856 219.788773,428.010010 
	C225.430801,427.498962 229.857269,422.104401 228.915527,416.440369 
	C227.395203,407.296356 225.732864,398.173584 223.966980,389.073578 
	C222.605530,382.057617 220.993118,375.090363 219.401321,367.677826 
	C215.876114,369.473877 212.911407,370.165100 211.172638,372.011047 
	C203.346771,380.319489 195.574005,388.713989 188.342728,397.536926 
	C179.997635,407.718903 177.175476,412.791504 186.732010,420.120087 
	C193.126114,425.023529 198.404953,433.255646 208.612488,428.980530 
	C208.896194,428.861664 209.272720,428.964386 210.531525,428.978638 
M74.342979,221.839249 
	C77.204170,226.663483 80.790596,228.080490 86.920334,226.967270 
	C98.079987,224.940536 109.271675,223.083099 120.406105,220.928223 
	C124.732292,220.090958 128.939545,218.639145 134.860367,217.010941 
	C130.690857,211.814850 127.890640,207.664505 124.423378,204.177383 
	C120.406212,200.137177 115.859566,196.610580 111.439186,192.987411 
	C106.100136,188.611267 100.859398,184.065842 95.179901,180.171524 
	C91.304916,177.514542 87.328506,178.722000 84.262413,182.321625 
	C80.720314,186.480103 77.058365,190.549652 73.749870,194.887711 
	C72.346352,196.727997 71.010666,198.519073 71.807808,201.685272 
	C72.990616,206.383347 72.631973,211.460220 73.048904,216.365723 
	C73.183487,217.949219 73.694115,219.500748 74.342979,221.839249 
M356.274323,160.935791 
	C358.791107,159.934814 361.301605,158.917633 363.825897,157.935898 
	C371.333038,155.016266 378.924316,152.294556 386.325836,149.128799 
	C390.606201,147.298019 393.663483,142.050980 392.573914,139.199081 
	C390.153442,132.863525 387.592957,126.580574 385.007690,120.309906 
	C384.653015,119.449631 383.987793,118.437973 383.200897,118.080132 
	C377.607574,115.536613 371.971405,113.081886 366.297607,110.722229 
	C360.256866,108.209984 355.279572,110.532440 352.984711,116.782875 
	C348.753021,128.308517 344.411713,139.795578 340.340912,151.377716 
	C338.986267,155.231979 338.320099,159.328217 337.339203,163.313843 
	C337.803528,163.857117 338.267853,164.400391 338.732178,164.943665 
	C344.308838,163.622253 349.885498,162.300842 356.274323,160.935791 
M89.295204,268.100891 
	C87.800453,268.034943 86.295433,268.058350 84.812683,267.887939 
	C77.569801,267.055603 74.440842,269.190094 72.948830,276.218933 
	C71.904503,281.138672 70.812302,286.061584 70.117104,291.035583 
	C69.838646,293.027893 69.977394,295.508057 70.950935,297.163605 
	C73.644928,301.744843 76.861176,306.020782 79.902687,310.395386 
	C84.758759,317.379822 89.733482,317.795441 96.333633,312.227539 
	C102.692223,306.863434 109.423195,301.940887 115.784523,296.579865 
	C121.557846,291.714386 127.053741,286.519684 133.406403,280.810028 
	C129.655243,278.367462 127.298119,275.815155 124.511497,275.196106 
	C113.092239,272.659119 101.542068,270.711487 89.295204,268.100891 
M273.007111,396.648651 
	C272.008423,404.755859 270.834381,412.846832 270.081390,420.976776 
	C269.673920,425.375702 272.411713,428.012787 276.515015,428.935638 
	C280.463837,429.823730 284.501160,430.823944 288.501740,430.833099 
	C292.449188,430.842133 296.753571,430.438171 300.257080,428.820282 
	C304.467377,426.875946 307.886353,423.287292 311.845398,420.714447 
	C319.027191,416.047302 319.172760,410.837372 314.767242,405.390503 
	C306.852814,395.605377 298.815033,385.918060 290.700562,376.298035 
	C288.390686,373.559601 285.637543,371.194946 281.979858,367.557068 
	C279.919067,372.316925 278.073730,375.658447 277.017670,379.233124 
	C275.413757,384.662079 274.357697,390.252869 273.007111,396.648651 
z"/>
<path fill="#000000" opacity="1.000000" stroke="none" 
	d="
M0.999996,251.468658 
	C1.672586,251.650223 2.727470,252.186081 2.961228,252.967560 
	C7.460146,268.008453 28.771416,274.949799 40.292942,263.276886 
	C43.138981,260.393463 45.604469,262.003143 46.882965,265.002228 
	C51.576286,276.011810 56.052025,287.114166 60.597935,298.186432 
	C60.781792,298.634247 60.913269,299.124725 60.957596,299.605560 
	C61.981495,310.712585 63.112816,321.811920 63.941025,332.933746 
	C64.274803,337.415955 60.908272,340.314667 56.838337,338.838623 
	C47.438923,335.429718 34.211010,343.770355 32.001598,355.047302 
	C28.691080,371.944397 37.715588,381.825073 53.320927,382.827179 
	C61.499001,383.352386 72.106544,378.898224 75.092735,368.122711 
	C76.397148,363.415802 78.496803,362.879852 82.131805,365.653412 
	C90.530586,372.061890 99.376801,377.982635 107.151047,385.077026 
	C112.531891,389.987366 116.471153,396.491791 120.970963,402.348175 
	C124.036255,406.337585 127.014938,410.396942 129.927536,414.499420 
	C133.414658,419.411133 132.560791,421.637787 126.978020,424.062134 
	C116.980431,428.403809 112.716217,434.958466 113.210014,445.016296 
	C113.664589,454.275085 117.928055,463.241852 128.634399,466.277191 
	C142.422577,470.186279 159.601425,460.169098 158.016602,445.292358 
	C157.893875,444.140350 158.024689,442.961884 158.029602,441.795654 
	C158.059860,434.628967 158.127029,434.341064 165.278259,435.079193 
	C176.003784,436.186188 186.797256,437.138672 197.347473,439.235413 
	C202.901413,440.339172 207.996704,443.740204 213.306015,446.088318 
	C218.787582,448.512695 224.338898,450.789520 229.745438,453.370331 
	C234.536758,455.657410 234.940842,458.136292 231.518250,461.982422 
	C225.660934,468.564636 224.843170,480.440918 229.974075,487.963989 
	C238.279449,500.141663 250.925171,503.066498 262.143219,494.863708 
	C271.576355,487.966095 275.442780,474.356110 267.123596,463.619324 
	C262.570892,457.743591 262.909271,456.593872 269.600403,453.743286 
	C279.846527,449.378265 290.012299,444.824799 300.224884,440.380524 
	C300.808441,440.126587 301.502380,440.099426 302.151672,440.027618 
	C313.511444,438.770660 324.871521,437.516754 336.233337,436.278656 
	C338.748962,436.004547 341.582550,439.658112 340.850800,442.461243 
	C337.348206,455.878876 348.158722,469.028839 362.178406,469.162292 
	C371.505341,469.251099 378.442505,466.405701 382.578430,457.909363 
	C386.815552,449.205231 385.854187,440.597504 380.256622,433.082489 
	C377.901276,429.920288 373.622864,427.959534 369.891998,426.112335 
	C365.396698,423.886719 364.928009,422.317169 367.943146,418.498779 
	C374.692169,409.951904 381.202393,401.216553 387.820282,392.565918 
	C388.702209,391.413116 389.457611,390.052338 390.589233,389.219482 
	C398.671844,383.271301 406.955627,377.591125 414.938293,371.514191 
	C421.364197,366.622253 422.376709,366.793549 426.053772,374.118134 
	C431.182953,384.335297 443.829987,390.384857 455.933716,384.793701 
	C469.623688,378.469757 471.062134,367.109131 467.652924,357.392242 
	C463.605865,345.857422 452.241852,340.067780 440.784821,342.618317 
	C437.722504,343.299988 436.212494,342.195404 436.749115,338.427765 
	C438.385803,326.936310 439.311981,315.338013 441.157959,303.884979 
	C441.826935,299.734589 444.324066,295.881317 445.969696,291.885345 
	C449.048920,284.408447 452.031891,276.890381 455.225555,269.462830 
	C456.641418,266.169861 459.659332,265.295532 462.050262,267.727173 
	C472.253235,278.103760 493.395966,273.645538 498.976868,259.257446 
	C499.248657,258.556793 499.930603,258.015228 500.710815,257.699768 
	C501.000000,338.964294 501.000000,419.928589 501.000000,500.946442 
	C334.442505,500.946442 167.885010,500.946442 1.000000,500.946442 
	C1.000000,417.979401 1.000000,334.958344 0.999996,251.468658 
z"/>
<path fill="#000000" opacity="1.000000" stroke="none" 
	d="
M501.000000,244.531342 
	C500.334045,244.524857 499.346252,244.197708 499.049683,243.552704 
	C493.089813,230.591736 475.493500,223.151947 462.368195,234.249054 
	C458.805695,237.261047 456.894470,236.253220 455.294281,232.630493 
	C450.604279,222.012634 445.512878,211.538940 441.512512,200.665222 
	C439.817932,196.059067 440.623993,190.574036 439.988525,185.526840 
	C439.177460,179.085526 438.141388,172.668701 437.042633,166.268738 
	C436.270325,161.770264 439.011688,159.246826 443.876404,159.886551 
	C455.361847,161.396957 465.833496,155.426071 468.960022,143.906921 
	C473.031036,128.908096 464.869568,120.167953 454.540466,116.282410 
	C442.921417,111.911621 430.525116,118.263222 426.026184,129.856522 
	C424.143311,134.708511 422.991608,135.183105 418.704620,132.138687 
	C411.153290,126.776108 404.078247,120.652481 396.159485,115.927345 
	C390.183960,112.361778 387.661438,106.327576 383.381042,101.616211 
	C378.396698,96.130051 374.310577,89.811546 369.992798,83.741783 
	C367.156708,79.754906 368.008392,76.648155 372.558350,75.218361 
	C382.180817,72.194626 387.808411,61.209339 387.110931,53.154224 
	C386.311005,43.916328 379.196167,34.829071 369.669373,32.206436 
	C362.644135,30.272463 349.043823,34.848679 345.479736,41.164131 
	C342.433289,46.562286 340.812469,52.620403 342.501160,59.046276 
	C343.247650,61.886929 340.685669,65.263161 337.859222,64.946114 
	C328.938232,63.945419 320.039337,62.746365 311.135773,61.594231 
	C310.689545,61.536495 310.279602,61.198345 309.295959,60.595425 
	C303.330414,61.191845 299.215363,57.899422 294.660095,56.002537 
	C286.713409,52.693424 278.639709,49.678059 270.772736,46.193100 
	C266.030212,44.092239 265.730591,41.292091 268.991821,37.491177 
	C270.221680,36.057812 271.561005,34.366669 271.927979,32.601295 
	C274.421814,20.603975 274.301025,11.694170 260.958221,2.910688 
	C260.442871,2.571446 260.310730,1.650098 260.000000,0.999998 
	C340.260834,1.000000 420.521637,1.000000 501.000000,1.000000 
	C501.000000,82.020767 501.000000,163.041718 501.000000,244.531342 
z"/>
<path fill="#000000" opacity="1.000000" stroke="none" 
	d="
M202.868698,58.909714 
	C191.538727,60.259911 180.203201,61.565804 168.881973,62.985783 
	C165.219849,63.445103 163.928864,61.630859 163.935547,56.647915 
	C163.940796,52.740875 163.876358,48.709637 162.957672,44.949860 
	C160.651245,35.510414 150.781265,29.711874 138.407028,29.997627 
	C130.077927,30.189968 122.035400,36.225719 120.450981,45.277126 
	C118.559235,56.084202 119.259628,67.981339 134.542267,73.218056 
	C137.847900,74.350754 139.149780,76.355515 136.793503,79.482315 
	C129.459869,89.214058 122.727921,99.514618 114.472511,108.395294 
	C109.061150,114.216515 101.398766,117.936974 94.779846,122.647881 
	C92.126854,124.536110 89.604248,126.607086 86.958847,128.506516 
	C82.923904,131.403687 79.688133,130.328888 78.034981,125.620201 
	C74.971504,116.894501 68.104019,111.888283 58.902412,112.061707 
	C55.352589,112.128609 51.528740,112.158218 48.322502,113.438683 
	C34.558910,118.935379 30.433086,133.629013 38.619606,146.197235 
	C44.262207,154.859940 52.510124,157.070145 62.032604,155.863007 
	C66.252869,155.328003 67.415382,157.169601 66.934708,160.711975 
	C65.357147,172.337814 64.376038,184.116104 61.720505,195.498642 
	C59.992558,202.905212 55.769775,209.733658 52.628216,216.804916 
	C50.984959,220.503708 49.345795,224.208450 47.553467,227.835739 
	C45.747490,231.490616 42.315914,232.335205 39.270107,229.707291 
	C30.299072,221.967148 11.798397,222.930832 5.126028,235.370041 
	C3.860646,237.729095 2.793386,240.194397 1.317359,242.305344 
	C1.000000,161.739624 1.000000,81.479263 1.000000,1.000000 
	C81.020760,1.000000 161.041718,1.000000 241.826538,1.291892 
	C242.392822,1.850485 242.249039,2.196050 241.990051,2.372619 
	C227.167694,12.477316 224.782440,24.448788 234.654541,39.238621 
	C236.526245,42.042702 236.507050,44.073372 232.881973,45.619488 
	C222.818680,49.911549 212.865417,54.461594 202.868698,58.909714 
z"/>
<path fill="#E3ECF4" opacity="1.000000" stroke="none" 
	d="
M203.066650,59.215904 
	C212.865417,54.461594 222.818680,49.911549 232.881973,45.619488 
	C236.507050,44.073372 236.526245,42.042702 234.654541,39.238621 
	C224.782440,24.448788 227.167694,12.477316 241.990051,2.372619 
	C242.249039,2.196050 242.392822,1.850485 242.295197,1.291892 
	C247.688034,1.000000 253.376083,1.000000 259.532043,0.999998 
	C260.310730,1.650098 260.442871,2.571446 260.958221,2.910688 
	C274.301025,11.694170 274.421814,20.603975 271.927979,32.601295 
	C271.561005,34.366669 270.221680,36.057812 268.991821,37.491177 
	C265.730591,41.292091 266.030212,44.092239 270.772736,46.193100 
	C278.639709,49.678059 286.713409,52.693424 294.660095,56.002537 
	C299.215363,57.899422 303.330414,61.191845 308.920959,60.580303 
	C307.119812,60.977383 305.042297,60.631332 303.181335,61.116249 
	C301.425293,61.573818 299.321411,62.568104 298.491272,63.983574 
	C298.016998,64.792244 299.780487,66.913345 300.321198,68.718597 
	C294.821777,69.662842 289.547485,70.426071 284.251312,70.980827 
	C274.401520,72.012581 270.935516,75.084259 272.182739,84.447411 
	C273.859436,97.034538 276.487854,109.512093 279.173309,121.936043 
	C279.879883,125.204933 282.302155,128.102966 283.936554,131.171326 
	C281.403381,133.146194 278.742645,134.981552 276.379608,137.142502 
	C274.661560,138.713623 273.921234,140.689392 276.347839,142.651306 
	C270.678894,142.304810 265.107147,142.086395 259.840027,140.705780 
	C257.853607,140.185104 255.554016,137.146255 255.185165,134.954453 
	C254.458176,130.634445 255.080215,126.101059 254.938522,121.662498 
	C254.878098,119.769478 254.531540,117.807434 253.874939,116.040268 
	C253.466354,114.940590 252.233749,114.147079 251.370987,113.216148 
	C250.575806,114.243958 249.303513,115.172729 249.066147,116.316330 
	C247.895462,121.956223 246.625122,127.619324 246.109467,133.339111 
	C245.579849,139.213531 242.199036,142.884308 236.257278,143.051895 
	C232.849319,143.148026 229.450302,143.561630 226.047256,143.832306 
	C226.923828,142.783829 227.800400,141.735352 229.456528,139.754425 
	C225.831680,136.423340 222.158035,133.047409 218.649780,129.343979 
	C222.591690,128.713989 223.398453,125.823196 223.957535,122.897835 
	C226.342758,110.417229 228.758530,97.940643 230.944260,85.424362 
	C232.321640,77.536980 229.042145,73.231766 221.539551,71.990395 
	C216.319916,71.126770 211.156479,69.923500 205.967926,68.871948 
	C209.395767,63.667255 208.873474,61.860813 203.066650,59.215904 
z"/>
<path fill="#000000" opacity="1.000000" stroke="none" 
	d="
M225.643326,143.917175 
	C229.450302,143.561630 232.849319,143.148026 236.257278,143.051895 
	C242.199036,142.884308 245.579849,139.213531 246.109467,133.339111 
	C246.625122,127.619324 247.895462,121.956223 249.066147,116.316330 
	C249.303513,115.172729 250.575806,114.243958 251.370987,113.216148 
	C252.233749,114.147079 253.466354,114.940590 253.874939,116.040268 
	C254.531540,117.807434 254.878098,119.769478 254.938522,121.662498 
	C255.080215,126.101059 254.458176,130.634445 255.185165,134.954453 
	C255.554016,137.146255 257.853607,140.185104 259.840027,140.705780 
	C265.107147,142.086395 270.678894,142.304810 276.567871,142.921112 
	C282.400452,145.467224 287.709198,148.277954 293.214905,150.627167 
	C297.893707,152.623550 302.153625,150.625854 305.432007,146.239960 
	C309.346802,141.002655 313.661285,136.064163 317.814026,130.982300 
	C321.570770,134.224152 321.737457,134.616470 319.944183,138.127411 
	C317.582336,142.751587 314.763245,147.170197 312.753357,151.935562 
	C311.576630,154.725525 310.670227,157.585495 314.448975,160.438416 
	C322.609924,166.599808 330.557709,173.287201 335.675720,182.405899 
	C339.266296,188.803131 344.632507,189.973267 351.705750,186.780212 
	C355.826874,184.919815 359.921112,182.935806 364.195801,181.513275 
	C365.757874,180.993469 367.806427,181.935638 369.633057,182.210846 
	C368.890533,183.840607 368.583252,186.041718 367.327759,186.998047 
	C362.677277,190.540512 357.755005,193.735199 352.851654,196.932983 
	C350.285065,198.606796 349.542511,200.248642 350.690338,203.472351 
	C354.271698,213.530563 358.343719,223.355133 358.253113,234.542709 
	C358.185699,242.867981 361.489807,245.059250 370.230469,246.023621 
	C374.910797,246.540009 379.589294,247.175705 384.210297,248.061676 
	C385.506256,248.310150 386.595306,249.637711 387.779266,250.470291 
	C386.534821,251.617599 385.439941,253.473480 384.016754,253.773880 
	C380.353851,254.546997 376.548492,254.902252 372.794830,254.942749 
	C358.145386,255.100845 361.761047,253.988602 359.314392,266.470276 
	C357.692841,274.742981 355.592255,282.514038 351.607330,289.868530 
	C347.827972,296.843597 350.429901,302.575989 356.416718,306.021851 
	C360.601624,308.430573 364.126556,312.051208 367.710999,315.383606 
	C368.440735,316.062012 368.711548,318.411469 368.144440,319.032837 
	C367.283783,319.975922 365.169830,320.848907 364.171448,320.413727 
	C358.747650,318.049683 353.388031,315.478271 348.237000,312.569733 
	C344.834991,310.648773 342.690033,310.784546 340.144806,314.088287 
	C333.296753,322.977234 325.303314,330.727386 315.756744,336.794373 
	C311.630188,339.416840 310.908478,344.083649 312.975952,348.647064 
	C315.286285,353.746429 317.276886,359.015228 318.999329,364.342010 
	C319.543488,366.024963 318.777618,368.131531 318.611298,370.044220 
	C317.842834,370.242401 317.074341,370.440582 316.305878,370.638763 
	C312.426208,365.143402 308.236023,359.835175 304.773010,354.088684 
	C302.353088,350.073059 299.787323,348.981201 295.507111,350.784332 
	C291.646027,352.410919 287.688019,354.018646 283.613190,354.878418 
	C277.117126,356.249084 270.516205,357.274506 263.908234,357.919403 
	C257.601074,358.534912 255.464188,360.580475 254.939514,366.986603 
	C254.515137,372.168121 253.768143,377.352997 252.686981,382.434814 
	C252.306915,384.221252 250.508911,385.706024 249.358353,387.328552 
	C248.744690,387.208588 248.131027,387.088654 247.517365,386.968719 
	C247.011169,383.384918 246.374542,379.813599 246.031082,376.214264 
	C245.579819,371.485382 246.863541,365.725891 244.571106,362.307404 
	C242.685715,359.495880 236.734573,358.672150 232.478683,358.341583 
	C223.399872,357.636414 215.667252,353.697235 208.070755,349.412567 
	C203.467728,346.816345 200.244919,347.796631 195.984131,352.900146 
	C192.219940,357.408844 188.642075,362.075012 184.807281,366.521027 
	C184.127762,367.308868 182.591934,367.358124 181.451538,367.748474 
	C181.171814,366.453918 180.291687,364.907227 180.711838,363.906525 
	C183.074448,358.279663 185.291565,352.499695 188.488022,347.348907 
	C190.456757,344.176483 190.231979,342.398010 187.734177,340.196960 
	C184.404755,337.263062 180.924469,334.457214 177.901688,331.228668 
	C173.512375,326.540619 169.107590,321.786224 165.382217,316.578766 
	C161.118240,310.618408 155.065125,309.066467 148.471848,313.020721 
	C143.568817,315.961243 138.449570,318.325775 130.627396,317.748230 
	C132.561966,314.907471 133.523392,312.454712 135.313171,311.082062 
	C139.158203,308.133087 143.275711,305.443909 147.572845,303.208038 
	C151.506180,301.161407 152.782181,298.657257 150.956955,294.591827 
	C146.233994,284.072144 143.986740,273.107147 143.644852,261.516479 
	C143.569016,258.945953 139.413742,255.072296 136.476700,254.295914 
	C129.652939,252.492126 122.426453,252.211868 115.526840,251.334915 
	C114.910637,246.088516 116.770119,244.256927 122.635208,244.034042 
	C127.127144,243.863342 131.647446,243.759521 136.124039,244.071854 
	C139.952545,244.338974 141.487747,242.639160 142.025970,239.155075 
	C142.695724,234.819641 143.134109,230.372955 144.474976,226.234329 
	C146.504776,219.969254 148.995956,213.823380 151.724503,207.824005 
	C154.131546,202.531479 153.973099,200.051727 149.245712,195.792267 
	C144.999054,191.965927 140.449173,188.472092 136.272064,184.575378 
	C135.204208,183.579193 135.040970,181.613281 134.462112,180.092911 
	C136.341492,179.748917 138.582657,178.577454 140.034180,179.212067 
	C144.892181,181.335953 149.472061,184.097763 154.150360,186.630234 
	C157.761612,188.585052 160.550110,188.490692 163.275986,184.664749 
	C169.906189,175.358841 178.570358,168.158585 188.352173,162.319809 
	C191.866806,160.221909 192.594116,157.290451 191.273209,153.704575 
	C189.109009,147.829437 186.632507,142.060532 184.713287,136.109573 
	C184.167740,134.417984 185.097000,132.250763 185.349945,130.301651 
	C186.970978,131.119263 189.120895,131.531708 190.115143,132.829498 
	C193.259720,136.934113 196.801315,141.049515 198.623322,145.765747 
	C200.529648,150.700333 203.355438,150.509720 207.093857,149.435135 
	C213.161591,147.690979 219.192780,145.819672 225.643326,143.917175 
z"/>
<path fill="#000000" opacity="1.000000" stroke="none" 
	d="
M113.990707,132.105072 
	C116.383354,126.724510 118.349854,121.503914 121.220520,116.839821 
	C122.547188,114.684357 125.471146,113.232361 127.967636,112.138809 
	C132.246368,110.264580 136.714706,108.781982 141.184952,107.398331 
	C145.222534,106.148582 148.943710,107.077911 150.886429,111.013611 
	C153.517731,116.344330 155.802383,121.867096 157.901581,127.433479 
	C159.901184,132.735794 161.495224,138.192429 163.221619,143.595886 
	C164.206421,146.678207 165.455017,149.736282 165.932419,152.903595 
	C166.398209,155.993759 166.033691,159.209076 166.033691,163.773392 
	C160.987518,162.239426 156.419144,161.098877 152.033478,159.467255 
	C142.089615,155.767853 132.229126,151.843414 122.351273,147.968323 
	C120.552597,147.262695 118.680717,146.578949 117.104408,145.501953 
	C112.311981,142.227570 111.468796,138.444550 113.990707,132.105072 
z"/>
<path fill="#000000" opacity="1.000000" stroke="none" 
	d="
M431.965698,207.875595 
	C431.307678,211.823395 430.392700,215.305054 430.048279,218.842255 
	C428.895721,230.679840 422.144867,232.192871 413.535614,230.697479 
	C401.934967,228.682465 390.357025,226.470184 378.877991,223.863953 
	C375.626007,223.125641 372.752869,220.718735 368.229858,218.281754 
	C375.544250,211.711456 381.817108,205.914810 388.271698,200.328125 
	C393.815308,195.529938 399.552063,190.953842 405.229919,186.311951 
	C411.874146,180.880005 417.577118,181.935135 422.045471,189.134613 
	C424.004303,192.290726 426.376129,195.197144 428.643158,198.153519 
	C430.755981,200.908859 432.811005,203.640411 431.965698,207.875595 
z"/>
<path fill="#000000" opacity="1.000000" stroke="none" 
	d="
M377.773926,294.274384 
	C375.491730,291.646149 373.343658,289.370300 371.462616,286.891785 
	C368.875214,283.482574 370.095398,281.047089 373.944092,280.058777 
	C379.273499,278.690216 384.652710,277.446991 390.073608,276.518005 
	C399.713379,274.866058 409.373047,273.269043 419.076050,272.066101 
	C427.398438,271.034332 428.971313,276.562561 429.905975,282.358704 
	C430.608887,286.717865 430.223145,291.269714 431.094055,295.579803 
	C431.933075,299.732208 430.291992,302.218475 427.604767,304.973511 
	C423.851074,308.821991 420.809052,313.363983 417.060608,317.218384 
	C414.467682,319.884583 410.725433,321.103607 407.468384,318.674957 
	C400.815704,313.714203 394.490906,308.311310 388.070679,303.042267 
	C384.679810,300.259399 381.372253,297.374969 377.773926,294.274384 
z"/>
<path fill="#000000" opacity="1.000000" stroke="none" 
	d="
M338.044006,349.744171 
	C337.695038,346.078735 336.772980,342.764526 337.180450,339.622681 
	C337.747925,335.246765 341.462097,336.820587 343.870575,337.487427 
	C348.528320,338.777069 353.056335,340.561951 357.588074,342.274078 
	C365.915375,345.420197 374.130676,348.880280 382.535126,351.799408 
	C390.035187,354.404449 393.502960,359.877533 389.122986,367.642761 
	C386.821991,371.722229 385.331757,376.253418 383.127228,380.395294 
	C382.067078,382.387115 380.540222,384.689026 378.633911,385.565643 
	C373.223785,388.053467 367.572845,390.077179 361.893982,391.901459 
	C357.606537,393.278717 353.008698,390.511322 351.081787,385.416382 
	C346.938049,374.459747 343.035889,363.411804 339.024597,352.404968 
	C338.747620,351.644989 338.386169,350.915802 338.044006,349.744171 
z"/>
<path fill="#000000" opacity="1.000000" stroke="none" 
	d="
M163.776306,340.508301 
	C158.395233,354.632507 153.491592,368.496460 147.858047,382.057190 
	C144.440796,390.282990 138.999390,391.480103 131.178894,387.015869 
	C128.802704,385.659424 126.384468,383.870178 123.803345,383.478058 
	C117.146629,382.466766 114.812935,377.828979 113.095856,372.334412 
	C112.088036,369.109436 111.240540,365.808350 109.920654,362.712097 
	C106.771904,355.325592 111.441612,350.137787 116.769936,348.225708 
	C129.389648,343.697144 142.180923,339.637390 154.957916,335.560730 
	C160.320999,333.849579 163.776733,335.781494 163.776306,340.508301 
z"/>
<path fill="#000000" opacity="1.000000" stroke="none" 
	d="
M210.068741,428.971191 
	C209.272720,428.964386 208.896194,428.861664 208.612488,428.980530 
	C198.404953,433.255646 193.126114,425.023529 186.732010,420.120087 
	C177.175476,412.791504 179.997635,407.718903 188.342728,397.536926 
	C195.574005,388.713989 203.346771,380.319489 211.172638,372.011047 
	C212.911407,370.165100 215.876114,369.473877 219.401321,367.677826 
	C220.993118,375.090363 222.605530,382.057617 223.966980,389.073578 
	C225.732864,398.173584 227.395203,407.296356 228.915527,416.440369 
	C229.857269,422.104401 225.430801,427.498962 219.788773,428.010010 
	C216.699127,428.289856 213.617035,428.653046 210.068741,428.971191 
z"/>
<path fill="#000000" opacity="1.000000" stroke="none" 
	d="
M74.187851,221.453079 
	C73.694115,219.500748 73.183487,217.949219 73.048904,216.365723 
	C72.631973,211.460220 72.990616,206.383347 71.807808,201.685272 
	C71.010666,198.519073 72.346352,196.727997 73.749870,194.887711 
	C77.058365,190.549652 80.720314,186.480103 84.262413,182.321625 
	C87.328506,178.722000 91.304916,177.514542 95.179901,180.171524 
	C100.859398,184.065842 106.100136,188.611267 111.439186,192.987411 
	C115.859566,196.610580 120.406212,200.137177 124.423378,204.177383 
	C127.890640,207.664505 130.690857,211.814850 134.860367,217.010941 
	C128.939545,218.639145 124.732292,220.090958 120.406105,220.928223 
	C109.271675,223.083099 98.079987,224.940536 86.920334,226.967270 
	C80.790596,228.080490 77.204170,226.663483 74.187851,221.453079 
z"/>
<path fill="#000000" opacity="1.000000" stroke="none" 
	d="
M355.868225,160.957611 
	C349.885498,162.300842 344.308838,163.622253 338.732178,164.943665 
	C338.267853,164.400391 337.803528,163.857117 337.339203,163.313843 
	C338.320099,159.328217 338.986267,155.231979 340.340912,151.377716 
	C344.411713,139.795578 348.753021,128.308517 352.984711,116.782875 
	C355.279572,110.532440 360.256866,108.209984 366.297607,110.722229 
	C371.971405,113.081886 377.607574,115.536613 383.200897,118.080132 
	C383.987793,118.437973 384.653015,119.449631 385.007690,120.309906 
	C387.592957,126.580574 390.153442,132.863525 392.573914,139.199081 
	C393.663483,142.050980 390.606201,147.298019 386.325836,149.128799 
	C378.924316,152.294556 371.333038,155.016266 363.825897,157.935898 
	C361.301605,158.917633 358.791107,159.934814 355.868225,160.957611 
z"/>
<path fill="#000000" opacity="1.000000" stroke="none" 
	d="
M89.667641,268.323914 
	C101.542068,270.711487 113.092239,272.659119 124.511497,275.196106 
	C127.298119,275.815155 129.655243,278.367462 133.406403,280.810028 
	C127.053741,286.519684 121.557846,291.714386 115.784523,296.579865 
	C109.423195,301.940887 102.692223,306.863434 96.333633,312.227539 
	C89.733482,317.795441 84.758759,317.379822 79.902687,310.395386 
	C76.861176,306.020782 73.644928,301.744843 70.950935,297.163605 
	C69.977394,295.508057 69.838646,293.027893 70.117104,291.035583 
	C70.812302,286.061584 71.904503,281.138672 72.948830,276.218933 
	C74.440842,269.190094 77.569801,267.055603 84.812683,267.887939 
	C86.295433,268.058350 87.800453,268.034943 89.667641,268.323914 
z"/>
<path fill="#000000" opacity="1.000000" stroke="none" 
	d="
M273.038025,396.211792 
	C274.357697,390.252869 275.413757,384.662079 277.017670,379.233124 
	C278.073730,375.658447 279.919067,372.316925 281.979858,367.557068 
	C285.637543,371.194946 288.390686,373.559601 290.700562,376.298035 
	C298.815033,385.918060 306.852814,395.605377 314.767242,405.390503 
	C319.172760,410.837372 319.027191,416.047302 311.845398,420.714447 
	C307.886353,423.287292 304.467377,426.875946 300.257080,428.820282 
	C296.753571,430.438171 292.449188,430.842133 288.501740,430.833099 
	C284.501160,430.823944 280.463837,429.823730 276.515015,428.935638 
	C272.411713,428.012787 269.673920,425.375702 270.081390,420.976776 
	C270.834381,412.846832 272.008423,404.755859 273.038025,396.211792 
z"/>
<path fill="#000000" opacity="1.000000" stroke="none" 
	d="
M284.274231,131.024536 
	C282.302155,128.102966 279.879883,125.204933 279.173309,121.936043 
	C276.487854,109.512093 273.859436,97.034538 272.182739,84.447411 
	C270.935516,75.084259 274.401520,72.012581 284.251312,70.980827 
	C289.547485,70.426071 294.821777,69.662842 300.515564,68.998260 
	C305.385193,72.686737 309.693939,76.575752 314.342590,80.003891 
	C320.503113,84.546959 321.834991,89.234184 317.002258,95.273331 
	C308.109131,106.386436 298.752197,117.131508 289.447784,127.908371 
	C288.269775,129.272812 286.244629,129.905869 284.274231,131.024536 
z"/>
<path fill="#000000" opacity="1.000000" stroke="none" 
	d="
M205.667419,69.032654 
	C211.156479,69.923500 216.319916,71.126770 221.539551,71.990395 
	C229.042145,73.231766 232.321640,77.536980 230.944260,85.424362 
	C228.758530,97.940643 226.342758,110.417229 223.957535,122.897835 
	C223.398453,125.823196 222.591690,128.713989 218.443665,129.095703 
	C211.712952,121.772842 205.294693,114.420319 199.020523,106.946838 
	C196.088852,103.454758 193.579529,99.606544 190.626404,96.134384 
	C184.608444,89.058754 185.287872,83.838844 192.905289,78.558037 
	C197.172424,75.599831 201.220276,72.325340 205.667419,69.032654 
z"/>
</svg>